<?xml version="1.0" encoding="utf-8"?>
<!-- Generator: Adobe Illustrator 23.1.0, SVG Export Plug-In . SVG Version: 6.00 Build 0)  -->
<svg version="1.1" id="Layer_1" xmlns="http://www.w3.org/2000/svg" xmlns:xlink="http://www.w3.org/1999/xlink" x="0px" y="0px"
	 viewBox="0 0 674.9 497.2" style="enable-background:new 0 0 674.9 497.2;" xml:space="preserve">
<style type="text/css">
	.st0{fill:#00CC33;}
	.st1{fill:#CC3366;}
	.st2{fill:#FF6600;}
	.st3{fill:#CD0101;}
	.st4{fill:#999999;}
	.st5{fill:#FFCC00;}
	.st6{fill:#01679A;}
	.st7{fill:#66CCCC;}
	.st8{fill:#CC66CC;}
	.st9{fill:#006699;}
	.st10{fill:#0033CC;}
	.st11{fill:#FF0000;}
	.st12{fill:#FFFFFF;}
</style>
<g>
	<g transform="matrix( 1, 0, 0, 1, 4,51.75) ">
		<g>
			<g id="Layer18_0_FILL">
				<path class="st0" d="M442.1,206.2c-5.1,4.7-8.6,9.7-10.5,15.1c-1.7,5.1-1.9,9.9-0.5,14.4c1.4,4.4,4.2,8,8.3,10.5
					c2.1,1.3,4.5,2.3,7.3,3c2.4,0.6,5.4,0.9,8.8,1c7.5,0.3,13.5,0.6,18,1c4.4,0.4,9.4,1,14.9,1.8c5.2,0.7,13.9,2,26.2,4h0
					c1.2,0.2,4,0.6,8.2,1.5c5,0.9,11.1,1.9,18.4,3l0,0c11.5,1.7,21.4,2.2,29.9,1.4c16.4-1.5,30.4-6.1,42-13.7
					c10.6-6.9,18.6-15.7,24-26.5c5-10.1,7.1-20.8,6.4-32.1c-0.7-11.1-4.1-21.2-10.3-30.1l0,0c-6.5-9.4-15.2-16.4-26.1-20.9
					c-12-4.8-25.8-6.2-41.3-4.1C529.2,140.4,487.9,164,442.1,206.2z"/>
			</g>
		</g>
	</g>
	<g transform="matrix( 1, 0, 0, 1, -6.5,50.05) ">
		<g>
			<g id="Layer18_1_FILL">
				<path class="st1" d="M245.5,97c-4.8-10.2-13-16.8-24.9-19.7c-11.9-2.9-26-1.8-42.4,3.4c-13,5-23.2,13.4-30.8,25.3
					c-7.6,11.8-11.3,24.8-11,39c0.2,15,4.9,29,14,42c10.1,14.4,24.8,25.8,44,34.4c22.9,10.4,49.2,16.5,78.9,18.3
					c9.7,0.6,23.5,1.1,41.5,1.5c9.8,0.2,19.3-1.1,28.6-4c11.7-3.6,14-8.3,6.7-14c-5.9-3.9-12.9-9.1-21.2-15.9
					c-16.6-13.4-30.8-27.2-42.8-41.4c-9-10.7-17.2-22.8-24.7-36.3C257.8,122.8,252.4,111.9,245.5,97z"/>
			</g>
		</g>
	</g>
	<g transform="matrix( 1, 0, 0, 1, 7,42.55) ">
		<g>
			<g id="Layer18_2_FILL">
				<path class="st2" d="M560.5-25.5c-8.4-4.5-17.4-6.8-26.8-7c-5.4-0.1-10.4,0.2-15,1c-5.5,0.9-10,2.4-13.5,4.5
					c-6.4,3.8-12,8.3-17,13.3C480.5-6,475,2.9,471.8,12.9c-3.5,10.6-5.4,20.1-5.8,28.4c-0.3,6.3,0.4,13.5,2,21.6
					c1.4,6.9,5.5,13.9,12.3,21c1.9,2,4.9,4.9,8.9,8.9c3.5,3.6,6.4,6.9,8.5,9.9c2.1,3,3.7,6.8,4.9,11.4c1.2,4.5,1.7,9.1,1.5,13.7
					c-0.2,5.5,1.8,8.9,5.9,10.3c3,1,6.2,0.9,9.9-0.4c14.5-5.1,26-9.8,34.7-14.2c8.7-4.4,16-9.1,22-14.3c9.1-7.9,15.1-17.8,18.1-29.7
					c2.4-9.6,3.2-23.1,2.5-40.7c-0.4-9.1-2.3-18-5.8-26.6C589,6.6,585.8,0.6,581.7-6C576.4-14.2,569.4-20.8,560.5-25.5z"/>
			</g>
		</g>
	</g>
	<g transform="matrix( 1, 0, 0, 1, 0,46.55) ">
		<g>
			<g id="Layer18_3_FILL">
				<path class="st3" d="M397.6,72c-0.8-19.9-5.1-36.5-12.8-49.9c-7-12.1-16.3-20.7-28-26C346-8.8,334.4-10.3,322-8.5
					C309.9-6.7,298.9-2,288.9,5.7c-10.4,8-18.1,18.1-23.2,30.3h0c-5.5,13.4-7.1,28-4.9,43.8c5.4,38,31.5,77.1,78.2,117.3
					c5.5,4.8,11.7,9.2,18.4,13.4h0c6.9,4.3,12.9,7.3,18,9c5.8,2,9.5,2,11-0.1c1.8-2.3,0.6-7-3.6-14.1c-7.4-12.4-10.6-25.9-9.7-40.3
					c0.4-6.8,2.3-15.8,5.8-27c0.9-3,2.6-7.2,5.1-12.9c3.2-7,5.3-12,6.5-14.9C395.7,96.9,398,84.1,397.6,72z"/>
			</g>
		</g>
	</g>
	<g transform="matrix( 1, 0, 0, 1, 0,46.55) ">
		<g>
			<g id="Layer18_4_FILL">
				<path class="st4" d="M466.6,92.3c-6-1-12.1-0.9-18.1,0.2c-7.9,1.5-14.9,4.8-20.9,9.8c-7.3,6.1-14.1,15.2-20.4,27.3
					c-6.6,12.6-10.4,24.2-11.2,34.6c-0.9,10.8,0.1,21.1,3,30.9c3.3,11.4,8.4,18.9,15.3,22.5c3.1,1.7,5.4,2.2,6.8,1.6
					c1.1-0.4,2.9-2.4,5.5-5.8c8.8-11.5,20.8-22.8,36.1-33.9c9.2-6.7,16.4-12.8,21.6-18.5c5.9-6.5,10-13.3,12.5-20.4
					c1.7-4.8,1.8-11,0.3-18.8c-1.3-6.9-3.1-11.7-5.3-14.4C485.1,99,476.7,94,466.6,92.3z"/>
			</g>
		</g>
	</g>
	<g transform="matrix( 1, 0, 0, 1, 0,46.55) ">
		<g>
			<g id="Layer18_5_FILL">
				<path class="st5" d="M225.9,41.3c-3.9-4.3-8-7.4-12.4-9.4c-3.9-1.8-7.6-2.5-11.3-2.2c-3,0.3-5.8,1.3-8.3,3
					c-0.3,0.2-0.6,0.3-0.9,0.5c-2.5,1.9-4.4,4.4-5.6,7.4c-1.3,3-1.7,6.1-1.2,9.3c0.5,3.5,2.1,6.6,4.6,9.5c2.4,2.8,5.2,4.9,8.3,6.5
					c2.3,1.1,4.9,2,8,2.6c1.9,0.4,5.4,1,10.4,1.9c3.6,0.7,7.6,1.9,12.2,3.5c2.4,0.9,5.1,1.9,8.3,3.1c1.7,0.5,2.8-0.6,3.3-3.3
					c0.7-3.4-0.3-8-3.1-13.8C234.7,52.8,230.7,46.6,225.9,41.3z"/>
			</g>
		</g>
	</g>
	<g transform="matrix( 0.99725341796875, 0.0740509033203125, -0.0740509033203125, 0.99725341796875, 13.1,-2.35) ">
		<g>
			<g id="Layer18_6_FILL">
				<path class="st6" d="M229.1,21.2c-2.9,1-5.4,2.5-7.5,4.7c-2.2,2.4-3.6,5.3-4.3,8.8c-1.6,8.4,1.2,18.5,8.6,30.3
					c2.3,3.6,4.4,6.2,6.3,7.7c1.3,1,2.3,1.3,3.2,1c0.9-0.4,1.5-1.3,1.8-2.9c1.1-6.3,3-12.6,5.9-19c2.8-5.4,4.3-8.6,4.6-9.4
					c1.4-4.2,1.7-7.9,1-11.2c-0.6-2.9-1.9-5.3-4.1-7.2c-2-1.8-4.4-2.9-7.2-3.4C234.7,20.1,231.9,20.3,229.1,21.2z"/>
			</g>
		</g>
	</g>
	<g transform="matrix( 0.9999847412109375, 0, 0, 0.9999847412109375, 44.4,2.7) ">
		<g>
			<g id="Layer18_7_FILL">
				<path class="st7" d="M426.6,28.4c-0.5-3-1.3-5.6-2.5-7.9c-1-1.9-2.5-3.4-4.4-4.4c-1.8-0.8-3.7-1.2-5.8-1
					c-2.2,0.2-4.1,0.9-5.9,2.1c-1.9,1.3-3.3,2.9-4.3,4.8c-1.2,2.1-1.7,4.4-1.5,7c0.4,6.3,4.4,13,12,20c2.3,2.2,4.4,3.6,6.1,4.4
					c1.1,0.4,1.9,0.5,2.4,0.1c0.3-0.2,0.7-0.6,1.1-1.2c0.5-0.6,0.8-1.2,1-1.8c0.5-1.4,0.9-3.4,1.3-6c0-0.5,0.2-2.2,0.6-5.1
					C427.1,35.2,427.1,31.5,426.6,28.4z"/>
			</g>
		</g>
	</g>
	<g transform="matrix( 1, 0, 0, 1, 0,46.55) ">
		<g>
			<g id="Layer18_8_FILL">
				<path class="st3" d="M391.4,18.7c-0.1-0.1-0.1-0.2-0.2-0.3c-7.8-13.4-18.1-23-31-28.9c-0.1,0-0.2-0.1-0.3-0.2
					c-12.1-5.5-25.1-7.3-39-5.2c-13.4,2-25.6,7.2-36.6,15.7c-11.5,8.8-20,20-25.5,33.5c0,0,0,0.1,0,0.1c-0.1,0.2-0.1,0.4-0.2,0.7
					c-5.8,14.4-7.5,30-5.1,47c5.4,39.6,32.3,80.2,80.8,122c5.7,4.9,12,9.5,18.9,13.8c0.1,0.1,0.2,0.1,0.3,0.2l0,0
					c7.5,4.7,14,7.9,19.5,9.8c10,3.4,16.5,2.6,19.3-2.5c4.5-4.1,3.5-11.7-3-22.7c-6.6-11.1-9.4-23.1-8.6-35.9
					c0.4-6.4,2.3-14.9,5.4-25.4c0.8-2.7,2.4-6.7,4.8-11.9c3.3-7.2,5.5-12.3,6.7-15.3c5.6-14.3,8.1-28.1,7.6-41.2
					C404.2,50.6,399.6,32.9,391.4,18.7z"/>
			</g>
		</g>
	</g>
	<g transform="matrix( 1, 0, 0, 1, 0,46.55) ">
		<g>
			<g id="Layer18_9_FILL">
				<path class="st8" d="M412.2,35.7c1.1,6,2.1,13,2.9,20.8c0.9,9.1,1.3,16.4,1.2,22c-0.1,4.3,0.5,7.6,1.8,10
					c0.8,1.4,1.6,2.3,2.5,2.7c0.5,0.2,1.3,0.2,2.3-0.1h0.1c1.7-0.6,3.8-1.7,6.5-3.3c2.5-1.5,4.5-2.8,5.9-3.9
					c3.3-2.7,8.9-7.1,16.6-13c6.3-5.5,10-10.6,11-15.3c1.2-5.4,1.2-11.8,0-19.3c-1.2-7.7-3.3-13.9-6.1-18.4c-1.8-2.8-5.1-5.4-10-7.7
					c-6.1-3-11.8-3.5-17-1.7c-6.7,2.3-11.6,6-14.7,11C412,24.3,411.1,29.7,412.2,35.7z"/>
			</g>
		</g>
	</g>
	<g transform="matrix( 1, 0, 0, 1, 0,0) ">
		<g>
			<g id="Layer7_0_FILL">
				<path class="st9" d="M201.9,343.7l0.2,1.9c0.3,4.8,0.5,8.3,0.8,10.5c0.3,4.8,0.4,8.4,0.4,10.8c0,3.6-0.2,7.3-0.5,10.9
					c-0.5,5.2-2.6,9.5-6.2,12.8c-2.3,2.1-4.7,3.2-7.4,3.2c-1.8,0-3.4-0.4-4.9-1.3c-1.5-0.9-2.8-2.1-3.7-3.6l-1.3-2.6
					c-2.2-5.1-3.4-11-3.8-17.8c-0.1-2.1-0.2-5.3-0.2-9.4c-0.1-3.8-0.2-9.6-0.2-17.4l-0.2-0.9l-1-0.2h-24.3l-1,0.2
					c-0.3,0.8-0.4,1.4-0.4,1.9c-0.3,4-0.4,7.1-0.4,9.3c-0.1,2.4-0.2,6.1-0.2,11c0,9.6,0.6,17.8,2,24.6c0.8,4.8,1.9,9.4,3.3,13.6
					c1.4,5.1,4.6,9.7,9.5,14c2.7,2.3,6,4.5,10.1,6.8c2.8,1.9,5.9,2.7,9.4,2.4h2.8c7-0.4,12.9-2.7,17.6-7l0.3-0.4
					c0.2-0.3,0.4-0.3,0.6,0c0.1,0.5,0.2,1.4,0.2,2.6c0,4.1-1.1,8.2-3.2,12.2c-0.7,1-1.3,1.9-2,2.7c-3.6,3.3-7.3,5.5-10.9,6.5
					c-4,1.4-8.7,2.2-14.1,2.5c-1.7,0.1-3.2,0.2-4.6,0.1c-1.3-0.1-2.5-0.1-3.5-0.1l-0.3,2l0.5,26.3l0.1,1.5h1.6
					c3.7-0.3,6.5-0.4,8.4-0.4c6.2-0.4,12.1-1.3,17.6-2.6c8.7-1.9,15.9-5.9,21.6-12c3.6-3.6,6.4-8.1,8.4-13.5c1.6-4.2,2.6-9.4,3-15.5
					c0.5-8.1,0.9-14.3,1-18.8l0.6-36.6c0-10.8-0.3-20-1-27.6c-0.3-2.7-0.5-4.6-0.8-5.8l-23.2,0.9l-0.4,0.4L201.9,343.7 M289.2,342.2
					c-0.8-0.3-1.5-0.5-2.2-0.8c-2.8-1.5-5.9-2.4-9.4-2.6c-0.8-0.1-2.1-0.2-3.8-0.2c-3.7,0-7.1,0.6-10.1,1.9
					c-5.9,2.8-10.5,6.5-13.8,11.2c-3.6,4.8-6.4,9.8-8.2,15c-3.1,8.4-4.6,17.2-4.6,26.4c0,3.2,0.3,6.1,0.8,8.6
					c1,5.5,2.8,10.1,5.3,13.8c3.2,4.9,7.7,8.1,13.4,9.4c2,0.4,3.9,0.6,5.6,0.6l3.2-0.2c3.9-0.4,7.6-1.6,11-3.6
					c5.4-3.6,9.3-7,11.6-10.1l0.2-0.1c0.3,0.2,0.4,0.5,0.4,0.6c0,4.6-0.5,9-1.4,13.2c-0.6,3.1-1.8,5.9-3.6,8.6
					c-1.6,2.4-4.1,5.2-7.3,8.4c-1.2,1.2-2.6,2.2-4.2,3c-1.4,0.8-3.7,1.9-7,3.2c-4.8,2.1-9.8,3.2-15.2,3.2c-2.8,0-6-0.3-9.6-0.9
					c-0.1-0.1-0.3-0.2-0.4-0.1c-0.1,0.1-0.3,0.1-0.4,0.1l-0.4,0.4l-7.4,17.8l-0.4,1.4c0.8,0.5,2.1,1.2,3.9,2.1c1.8,1,3.4,1.7,4.7,2
					c4.7,1.8,10.1,2.7,16.2,2.7c1.8,0,4.4-0.1,7.8-0.4c4.6-0.5,9.2-1.8,13.8-4c5.1-2.4,8.7-4.5,10.9-6.3
					c7.1-5.5,12.5-11.4,16.2-17.7c2.4-4,4-7,4.8-9.2c1.7-4.8,2.8-9.9,3.2-15.3c0.3-2.1,0.4-5.2,0.4-9.4c0-4.1-0.1-7.2-0.2-9.2
					c-0.3-12.2-0.4-21.4-0.4-27.6l0.2-37.1c0-0.1,0-0.5,0-1.1c0-0.5-0.2-1-0.6-1.3h-5.5c-7.4,0-13,0.1-16.8,0.2h-0.2l-0.4,0.1
					C289.4,340.2,289.3,341.3,289.2,342.2 M286.5,371c-0.4,4.3-1.2,9.1-2.3,14.4c-0.9,4.2-3.1,8-6.5,11.4c-1.6,1.6-3.5,2.4-5.7,2.4
					c-2.3,0-4.2-0.9-5.8-2.6c-2-2-3.1-4.6-3.4-7.8c-0.1-0.5-0.2-1.3-0.2-2.1c0.3-4.6,1.1-8.6,2.6-12.3c2.1-4.9,5.3-8.4,9.6-10.5
					c2-0.9,4.2-1.3,6.5-1.3c1.5,0,2.7,0.4,3.5,1.1c0.9,0.8,1.5,1.8,1.6,3.1c0,0.5,0,1.1,0.1,1.8C286.7,369.3,286.6,370.1,286.5,371
					 M16.3,372.5c-2.2,7.7-3.3,15.1-3.3,22.2c0,6.4,1.6,12.9,4.8,19.5c3.6,7.2,9.6,10.9,17.9,10.9c4,0,7.9-0.9,11.9-2.8
					c0.7-0.4,1.8-0.8,3-1.4c2.8-1.6,5.1-3.2,6.9-4.6c2.7-2.3,5.1-4.7,7.2-7.2c0.5-0.8,1.1-1.4,1.6-1.6c0.1,0.6,0.2,1.3,0.2,2.1
					c0,0.8,0.1,1.4,0.2,1.9v7.6l-0.2,2.3c0,0.4,0.1,1,0.4,1.8l1.4,0.2l3.4-0.2c7.4,0,12.9-0.1,16.6-0.2c0.1,0,0.5,0,1,0.1
					c0.4,0.1,0.9,0,1.3-0.3l0.2-1.5v-14.6c-0.1-6.9,0.1-17.5,0.6-31.6l0.2-7.5c0.1-6.3,0.5-16.1,1-29.2c0-0.1,0-0.5,0-1.1
					c0-0.5-0.1-1-0.4-1.6c-1.2-0.1-3-0.2-5.5-0.2h-5.6c-1.3-0.1-3.1-0.3-5.4-0.5c-2.3-0.2-4.3-0.2-6-0.1l-0.2,1.8l-3.2-0.8
					c-2.2-0.5-4.6-0.8-7.3-0.8c-2.4,0-4.8,0.2-7.2,0.6c-4.9,0.8-9.1,2.3-12.6,4.6c-3.9,2.3-7.3,5.3-10.3,9
					C23.1,356,18.9,363.8,16.3,372.5 M66.1,372.1c0,1.1-0.1,1.9-0.2,2.4c-0.1,1.1-0.5,2.9-1,5.3c0,0.3-0.3,1-0.9,2.1
					c-2.8,4.3-6.3,7.3-10.5,9c-0.9,0.4-2.1,0.8-3.5,1.1c-0.4,0.1-0.9,0.2-1.5,0.2c-3.2,0-5.6-1.6-7.2-4.7c-0.8-1.8-1.2-3.8-1.2-6
					c0-2.4,0.6-5.1,1.9-8c2.4-4.8,5.6-8.2,9.7-10.1c1.3-0.9,2.5-1.4,3.5-1.5c1.1-0.2,1.9-0.4,2.5-0.4c2.7,0,4.9,1.5,6.8,4.4
					C65.5,368,66.1,370.1,66.1,372.1 M409.9,340.5l-0.2-1.4c-11.8,0.3-20.4,0.4-25.9,0.4l-0.8,0.2l-0.4,9.4c-0.5,4.3-1,7.6-1.5,9.9
					c-0.6,3.1-1.5,7.8-2.9,14.1c-0.9,4.3-2.8,8.3-5.8,12c-1.6,2-3.5,3.6-5.6,4.8c-2,1.4-4.4,1.9-7.2,1.6c-1-0.1-2-0.5-2.8-1.1
					c-2.3-2.2-3.8-4.6-4.4-7.3c-0.5-1.7-0.9-3.6-1-5.8c-0.2-2.1-0.4-3.5-0.5-4.2c-0.3-4.6-0.4-7.9-0.4-10.1l0.2-10.3
					c0.1-2.5,0.2-6.4,0.2-11.5c0-1.3-0.2-2.3-0.6-3.1c-1.6,0.1-4.1,0.2-7.4,0.2h-6c-1.4,0-3.1,0-5.1-0.1c-1.9-0.1-4.3,0-7,0.1
					l-0.7,1.5c-0.8,5.1-1.3,9.1-1.5,12.2c-0.1,1.5-0.3,3.2-0.4,5.2c-0.1,2-0.2,3.5-0.2,4.5c-0.3,5.1-0.4,9-0.4,11.6
					c0,6.2,0.3,11.6,1,16.2c0.8,6.9,2.7,13.9,5.8,21c3.2,6.8,9.1,11.5,17.7,14.1c4,0.6,6.9,0.9,8.8,0.9c3.7,0,6.9-0.5,9.8-1.7
					c5-1.8,9.1-4.4,12.4-7.9c2.2-2.6,3.6-4.6,4.4-6.1c0-0.1,0.1-0.3,0.2-0.5c0.1-0.3,0.4-0.3,0.8-0.2c0.3,2.9,0.4,5.1,0.4,6.6
					c0,0.8,0,1.9,0,3.3c0,1.4,0.1,2.6,0.3,3.5l1.4,0.2c5.9,0,10.3,0.1,13.3,0.2c4.1,0,7.1,0.1,9,0.2c1,0,1.7-0.2,2.3-0.6l0.2-1.8
					c0-5.9,0.1-10.4,0.2-13.3l0.2-10.5c0-4.8,0.1-11.9,0.4-21.1c0.1-3.6,0.2-9,0.2-16.1C410.3,351.3,410.2,344.8,409.9,340.5
					 M495,335.5c-1.2-0.1-3-0.2-5.5-0.2h-5.7c-1.3-0.1-3.1-0.3-5.4-0.5c-2.3-0.2-4.3-0.2-6-0.1l-0.2,1.8l-3.2-0.8
					c-2.2-0.5-4.6-0.8-7.3-0.8c-2.4,0-4.8,0.2-7.2,0.6c-4.9,0.8-9.1,2.3-12.6,4.6c-2.5,1.5-4.8,3.3-7,5.4c-1.2,1.1-2.3,2.3-3.3,3.6
					c-5.6,6.8-9.7,14.6-12.4,23.4c-2.2,7.7-3.3,15.1-3.3,22.2c0,6.4,1.6,12.9,4.8,19.5c3.1,6.1,7.8,9.7,14.2,10.6
					c1.2,0.2,2.4,0.3,3.7,0.3c4,0,7.9-0.9,11.9-2.8c0.7-0.4,1.8-0.8,3.1-1.4c2.8-1.6,5.1-3.2,6.8-4.6c2.7-2.3,5.1-4.7,7.2-7.2
					c0.5-0.8,1.1-1.4,1.6-1.6c0.1,0.6,0.2,1.3,0.2,2.1c0,0.8,0.1,1.4,0.2,1.9v7.6l-0.2,2.3c0,0.4,0.1,1,0.4,1.8l1.4,0.2l3.4-0.2
					c7.4,0,12.9-0.1,16.6-0.2c0.1,0,0.5,0,1,0.1c0.4,0.1,0.9,0,1.3-0.3l0.2-1.5v-14.6c-0.1-6.9,0.1-17.5,0.6-31.6l0.2-7.5
					c0.1-6.3,0.5-16.1,1-29.2c0-0.1,0-0.5,0-1.1C495.4,336.6,495.3,336.1,495,335.5 M469.1,372.1c0,1.1-0.1,1.9-0.2,2.4
					c-0.1,1.1-0.5,2.9-1,5.3c0,0.3-0.3,1-1,2.1c-2.8,4.3-6.3,7.3-10.5,9c-0.9,0.4-2.1,0.8-3.5,1.1c-0.4,0.1-0.9,0.2-1.5,0.2
					c-3.2,0-5.6-1.6-7.2-4.7c-0.8-1.8-1.2-3.8-1.2-6c0-2.4,0.7-5.1,2-8c2.4-4.8,5.6-8.2,9.7-10.1c1.3-0.9,2.5-1.4,3.5-1.5
					c1.1-0.2,1.9-0.4,2.5-0.4c2.7,0,4.9,1.5,6.8,4.4C468.5,368,469.1,370.1,469.1,372.1 M568.9,349.9c-0.1-0.1-0.2-0.3-0.2-0.6
					c-2.3-5.7-6.4-10-12.2-12.9c-1.8-0.9-4-1.9-6.8-2.9c-3.6-1.3-7.5-2-11.7-2c-2.1,0-4.2,0.2-6.3,0.6c-7.2,1.2-13.6,4.2-19.3,9.1
					c-7.4,6.6-11.1,14.5-11.1,23.6c0,7.2,2.4,13,7.3,17.4c2.5,2.5,5.6,4.4,9.1,5.6c1,0.1,2.2,0.4,3.8,0.9l9.5,1.8
					c2.1,0.4,3.8,1.4,5.1,3c1.3,1.6,2,3.1,2,4.4c0,1.6-0.9,3.2-2.7,4.8c-1,0.8-2.1,1.2-3.3,1.3c-0.5,0-0.9-0.1-1.1-0.2l-2.7-0.6
					c-2-0.7-4.6-2.2-7.8-4.6c-0.8-0.9-1.6-1.6-2.4-2c-1.2,0.8-4,3.2-8.3,7.4c-4.4,4.1-6.9,6.6-7.5,7.5c1.7,2.8,4.2,5.5,7.6,8.1
					c2.3,1.6,4.1,2.7,5.4,3.2c5.6,2.3,11.1,3.4,16.6,3.4c1.3,0,3.2-0.1,5.6-0.4c3.4-0.5,6.9-1.5,10.5-3c5.6-2.7,9.4-6.4,11.5-11.1
					c0.3-0.7,0.7-1.5,1.2-2.5c0.4-1,0.9-2.2,1.3-3.5c0.9-2.8,1.4-5.3,1.4-7.4c0-1.3-0.2-2.6-0.5-4c-1.4-6.5-4.9-11.1-10.4-13.8
					c-2.8-1.5-6-2.3-9.7-2.6c-1,0-2.7-0.1-5.1-0.4c-2.2-0.3-4.2-0.8-6.2-1.8c-1.6-0.5-2.8-1.7-3.6-3.4c-0.5-0.9-0.7-1.8-0.8-2.8
					c0-1.7,0.6-3,1.9-4c1.5-1.2,3.5-1.9,5.9-2.1c4.4-0.1,8.8,1.1,13.4,3.6l3.1,2.1c1.2-1,4.2-4.1,8.8-9.2
					C564.8,354.9,567.7,351.5,568.9,349.9 M661.1,340.5l-0.2-1.4c-11.8,0.3-20.4,0.4-25.9,0.4l-0.8,0.2l-0.4,9.4
					c-0.5,4.3-1.1,7.6-1.6,9.9c-0.6,3.1-1.5,7.8-2.8,14.1c-0.9,4.3-2.8,8.3-5.8,12c-1.6,2-3.5,3.6-5.6,4.8c-2,1.4-4.4,1.9-7.2,1.6
					c-1-0.1-2-0.5-2.9-1.1c-2.3-2.2-3.8-4.6-4.4-7.3c-0.5-1.7-0.8-3.6-1-5.8c-0.2-2.1-0.4-3.5-0.5-4.2c-0.3-4.6-0.4-7.9-0.4-10.1
					l0.2-10.3c0.1-2.5,0.2-6.4,0.2-11.5c0-1.3-0.2-2.3-0.6-3.1c-1.6,0.1-4.1,0.2-7.4,0.2h-6c-1.4,0-3.1,0-5.1-0.1
					c-1.9-0.1-4.2,0-6.9,0.1l-0.7,1.5c-0.8,5.1-1.3,9.1-1.5,12.2c-0.1,1.5-0.3,3.2-0.4,5.2c-0.1,2-0.2,3.5-0.2,4.5
					c-0.3,5.1-0.4,9-0.4,11.6c0,6.2,0.3,11.6,1,16.2c0.8,6.9,2.7,13.9,5.8,21c3.2,6.8,9.1,11.5,17.6,14.1c4,0.6,6.9,0.9,8.8,0.9
					c3.7,0,7-0.5,9.8-1.7c5-1.8,9.1-4.4,12.4-7.9c2.2-2.6,3.6-4.6,4.4-6.1c0-0.1,0.1-0.3,0.2-0.5c0.1-0.3,0.4-0.3,0.8-0.2
					c0.3,2.9,0.4,5.1,0.4,6.6c0,0.8,0,1.9,0,3.3c0,1.4,0.1,2.6,0.4,3.5l1.4,0.2c5.9,0,10.4,0.1,13.3,0.2c4.1,0,7.1,0.1,9,0.2
					c1,0,1.7-0.2,2.3-0.6l0.2-1.8c0-5.9,0.1-10.4,0.2-13.3l0.2-10.5c0-4.8,0.1-11.9,0.4-21.1c0.1-3.6,0.2-9,0.2-16.1
					C661.5,351.3,661.4,344.8,661.1,340.5z"/>
			</g>
		</g>
	</g>
	<g transform="matrix( 1, 0, 0, 1, -1.8,46.55) ">
		<g>
			<g id="Layer7_0_MEMBER_0_FILL">
				<path class="st9" d="M107.5,227.9c-0.3,0.4-0.4,0.9-0.4,1.5c0,0.6,0,1,0,1.2c0,4.2-0.1,7.4-0.2,9.5l-0.2,1.7
					c-3.4,0.3-5.9,0.5-7.4,0.5l-7.6,0.4c-0.8,0-1.9,0-3.4,0.1c-1.5,0.1-2.8,0.3-4,0.6c0,13.8,0.1,24.2,0.2,31.1l0.2,0.9
					c2.7,0.1,6.7,0,12-0.3l9.5-0.2l-0.8,77.4c-0.1,4.8-0.2,12.2-0.2,22v2.2l9.2-0.2c2.5-0.2,6.3-0.3,11.2-0.3
					c0.9-0.1,2.3-0.2,4.2-0.2h4.4c0.7,0,1.2-0.1,1.5-0.3v-3.3c0.1-19,0.2-50.4,0.2-94v-2.7c0-0.2,0.1-0.7,0.4-1.5l19.5-0.6l0.2-2.1
					l0.1-10.6c0-7.4,0.3-13.8,1-19.1v-1.4c-0.4-0.6-1-0.9-1.8-0.9h-0.9c-6.1,0.3-10.8,0.6-13.9,0.9c-0.4,0-1,0-1.9,0.1
					c-0.9,0.1-1.8,0-2.6-0.3l-0.2-2.2v-8.5c0-1-0.1-1.8-0.2-2.3l-0.8-0.3l-26.3,0.8L107.5,227.9z"/>
			</g>
		</g>
	</g>
	<g transform="matrix( 0.710906982421875, 0, 0, 0.711029052734375, 308.5,106.8) ">
		<g>
			<g id="Layer0_0_MEMBER_0_FILL">
				<path class="st10" d="M495.7,522.7c0.9-1.7,1-6.1,0.2-13.4c-3.8-0.2-10.1,0.1-19.1,0.9c-1.4,4.4-2.3,7.7-2.9,9.9
					c-0.1,0-0.1,0.1-0.1,0.1c0,0-0.2,0.7-0.5,2C481.3,522.6,488.8,522.8,495.7,522.7z"/>
				<path class="st11" d="M495.9,498.2c0.6-3.1,1-7.1,1.1-12c-0.9-0.6-5.4-0.6-13.3,0c0.2,0.3,0.2,0.7,0.1,1.2
					c-0.7,2.8-1.7,6.4-3.1,10.8C488,498.6,493.1,498.6,495.9,498.2z"/>
				<path class="st12" d="M495.9,509.3v-11.1c-2.8,0.4-7.9,0.4-15.3,0c-0.6,1.9-1.3,4-2.1,6.3c-0.7,2.1-1.3,4-1.8,5.8
					C485.8,509.4,492.2,509.1,495.9,509.3z"/>
			</g>
		</g>
	</g>
	<g transform="matrix( 0.710845947265625, 0, 0, 0.71099853515625, 308.5,106.8) ">
		<g>
			<g id="Layer0_0_MEMBER_0_MEMBER_0_FILL">
				<path class="st12" d="M477.7,484.2c-0.1,0.1-0.1,0.2-0.1,0.4c-0.1,0.1-0.1,0.2-0.1,0.4c-0.8,2.8-1.9,6.5-3.3,11
					c-0.1,0.2-0.2,0.4-0.2,0.6c-0.4,1.4-0.9,2.9-1.3,4.4c-0.9,2.8-1.7,5.2-2.4,7.2c-0.5,1.4-0.9,2.6-1.2,3.7
					c-0.1,0.3-0.2,0.6-0.2,0.9v9c0,0.8,0.3,1.5,0.9,2.1c0.6,0.6,1.3,0.9,2.1,0.9h0.8c0.6,0,1.2-0.2,1.8-0.5c0,0,0.1-0.1,0.2-0.1
					c0.4-0.4,0.8-0.8,1-1.4c0.1-0.2,0.2-0.4,0.1-0.5c0-0.1,0.1-0.2,0.1-0.2c0-0.1,0.1-0.1,0.1-0.2c0.1-0.5,0.2-0.9,0.3-1.2
					c0-0.1,0-0.1,0-0.2c0.1-0.1,0.1-0.3,0.2-0.4c0-0.1,0.1-0.1,0.1-0.2c0-0.1,0.1-0.1,0.1-0.2c0.5-2.2,1.4-5.4,2.8-9.7
					c0.5-1.7,1.1-3.5,1.8-5.5c0-0.1,0-0.2,0-0.3c0.7-2.3,1.4-4.4,2-6.3c1.4-4.5,2.5-8.1,3.3-10.9c0-0.1,0-0.2,0-0.3
					c0.2-1.3,0.1-2.4-0.5-3.1c0,0,0,0,0,0c-0.3-0.6-0.8-1.1-1.3-1.5c-0.5-0.7-1.3-1-2.3-0.9c-2-0.2-3.4,0.5-4.3,2
					C477.9,483.4,477.8,483.7,477.7,484.2z"/>
			</g>
		</g>
	</g>
	<g transform="matrix( 0.710906982421875, 0, 0, 0.711029052734375, 308.5,106.8) ">
		<g>
			<g id="Layer0_0_MEMBER_1_FILL">
				<path d="M112.9,477c-0.3-0.4-0.8-0.6-1.3-0.6c-0.4,0-0.8,0.2-1.1,0.5c-0.3,0.3-0.5,0.7-0.5,1.2c-0.1,1.8-0.1,3.9,0,6.3
					c-1.1,0-2,0-2.8,0c-0.5,0-0.8,0.1-1,0.4c-0.5,0.4-0.7,0.8-0.5,1.5c0.1,0.4,0.2,0.7,0.5,1c0.3,0.4,0.8,0.5,1.3,0.3
					c0.8-0.1,1.7-0.1,2.7-0.1c0,0.7,0,2,0,3.8c0.1,2.6,0.2,4.6,0.2,6.1c0,1.3-0.1,3.9-0.1,7.8c-0.2,3.5-0.1,6.2,0.1,8
					c0.2,2.9,1,5,2.4,6.3c0.8,0.9,2,1.5,3.7,1.7c0.3,0,1.5,0.1,3.4,0.1c0.4,0.1,0.7,0,1-0.3c0.4-0.3,0.6-0.8,0.6-1.3
					c0-0.4-0.1-0.8-0.5-1.1c-0.3-0.3-0.7-0.5-1-0.5h0c-1.7-0.2-2.7-0.3-3-0.3c-0.9-0.1-1.5-0.3-2-0.7c-0.8-0.9-1.2-2.3-1.4-4.3
					c-0.1-1.9-0.1-4.4,0-7.6c0.2-4.1,0.2-6.8,0.2-7.9c0-1.5-0.1-3.5-0.2-6.2c-0.1-1.7-0.1-2.9-0.1-3.6h3.4c0.5,0,0.9-0.2,1.2-0.5
					c0-0.1,0.1-0.1,0.2-0.1c0.1-0.3,0.2-0.6,0.2-1c0-0.4-0.1-0.8-0.2-1.1c-0.1,0-0.2-0.1-0.2-0.1c-0.3-0.3-0.7-0.5-1.2-0.5
					c-0.5,0-1.3,0-2.3,0c-0.5,0-0.9,0-1.3,0c0-2.3,0-4.4,0-6.2v-0.1C113.3,477.7,113.2,477.4,112.9,477 M140.8,486.4
					c-1.8-0.7-3.7-1-5.5-0.8c-2,0.3-3.6,1.1-5,2.4c-1.4,1.3-2.2,3-2.4,5.1c-0.1,0.6,0.1,1,0.5,1.4c0.3,0.2,0.6,0.4,0.9,0.5
					c0.6,0.1,1-0.1,1.3-0.5c0,0,0,0,0,0c0.3-0.4,0.5-0.7,0.5-1v-0.1c0.1-1.2,0.6-2.2,1.3-2.9v-0.1c0.9-0.9,1.9-1.4,3.2-1.5
					c1.3-0.2,2.5-0.1,3.7,0.5l0-0.1c1.2,0.5,2,1.3,2.5,2.4h0.1c0.9,1.7,1.5,4.9,1.8,9.5c-2.5-0.6-4.6-0.9-6.4-0.7h-0.1
					c-3.4,0.1-6,1.4-7.8,3.9c-1.6,2.2-2.4,4.9-2.2,8.3v0.5c0,0.4,0,0.7,0.1,0.8c0,0.1,0,0.2,0,0.3c0,0.1,0,0.3,0,0.4
					c0,0.1,0,0.2,0.1,0.3l0,0.2c0,0.3,0.1,0.6,0.3,0.8l0,0.2c0,0.1,0.1,0.2,0.2,0.3c0.1,0.2,0.2,0.4,0.3,0.5c1.3,1.8,3,3,5,3.5
					c2,0.5,4,0.6,6,0.2c1.5-0.3,2.8-0.8,4-1.5v1c0,0.5,0.2,0.9,0.5,1.1c0.3,0.3,0.7,0.5,1.1,0.5c0.5,0,0.9-0.2,1.2-0.5
					c0.3-0.3,0.5-0.6,0.5-1.1c0-1,0.1-3.2,0.2-6.5c0.1-3.6,0.1-6.4,0.1-8.5c0-7.4-0.7-12.4-2.1-14.9
					C144,488.3,142.6,487.1,140.8,486.4 M130.8,514.3c0-0.1,0-0.2,0-0.3c0-0.1,0-0.2-0.2-0.3c0,0,0-0.1,0-0.2v-0.8c0,0,0-0.1,0-0.1
					l0-0.3c-0.1-2.5,0.4-4.6,1.5-6.2c1.3-1.6,3.1-2.5,5.5-2.8c1.6,0,3.7,0.3,6.2,1v0.5c0.1,2,0,5.3-0.2,9.8
					c-1.5,1.7-3.6,2.7-6.1,2.8c-2.6,0.1-4.7-0.7-6.2-2.6c0-0.1,0-0.2-0.2-0.2l-0.1,0c0-0.1-0.1-0.2-0.1-0.2
					C130.9,514.6,130.9,514.5,130.8,514.3 M167.6,486L167.6,486c-2.1-1-4.3-1.3-6.5-0.8v0c-2.2,0.5-3.9,1.6-5.3,3.3h-0.1
					c-1.5,1.7-2,3.9-1.7,6.4c0.2,2.3,1.6,4.3,4,6c0.5,0.4,1.2,0.8,1.9,1.1h0c0.6,0.4,1.5,0.8,2.5,1.3c1,0.5,1.7,0.8,2,1
					c2.3,1.3,4,2.5,4.9,3.6c1.1,1.6,1.4,3.6,0.9,6c-0.3,1.4-1.2,2.5-2.7,3.2c-1.5,0.7-3.2,0.8-5.1,0.4c-2-0.4-3.6-1.4-4.9-3
					c-1.3-1.6-1.9-3.6-1.7-5.9v-0.1c0-0.5-0.2-0.8-0.5-1.1c-0.3-0.3-0.5-0.5-0.8-0.5c-0.1,0-0.2,0-0.3,0c-0.5,0-0.9,0.1-1.2,0.4
					c-0.3,0.3-0.5,0.7-0.5,1.1c-0.2,3.4,0.7,6.1,2.5,8.3c1.8,2,4,3.4,6.7,4c2.6,0.6,5,0.4,7.3-0.7h0c2.3-1.1,3.8-2.9,4.3-5.5
					c0.7-3.4,0.2-6.2-1.6-8.5c-1.1-1.6-3.1-3.1-5.9-4.5h-0.1c-0.4-0.2-1.1-0.5-2-1v0.1c-1-0.6-1.8-1-2.4-1.3c-0.5-0.3-1-0.7-1.5-1
					c-1.6-1.1-2.5-2.4-2.7-3.8c-0.2-1.5,0.2-2.9,1.1-4v0c0.9-1.1,2.1-1.8,3.7-2.1h-0.1c1.5-0.3,2.9-0.1,4.2,0.5
					c1.3,0.7,2.3,1.9,3,3.6c0.1,0.5,0.4,0.9,0.9,1c0.3,0.1,0.7,0.1,1.3,0c1-0.4,1.3-1.1,0.8-2.1C171.2,488.8,169.7,487,167.6,486
					 M219.5,478.3c0.1-0.3-0.1-0.7-0.5-1c-0.3-0.3-0.7-0.5-1.1-0.5c-0.5,0-0.9,0.2-1.2,0.5c-0.4,0.3-0.5,0.8-0.4,1.3
					c0.1,2.7,0.2,5.7,0.2,9.1c-1.6-0.8-3.6-1.2-6.1-1.2c-1,0-1.8,0-2.3,0H208c-0.5,0.1-1.1,0.3-2,0.5V487c-0.9,0.2-1.7,0.6-2.5,1.1
					c-1.8,1.1-3.3,3-4.3,5.5c-1.1,2.4-1.7,5.1-2,8.1c-0.3,2.8-0.3,5.6,0.1,8.3c0.4,2.7,1.2,4.9,2.3,6.5v-0.2c1.2,2.1,3,3.5,5.3,4.3
					c2.3,0.7,4.6,0.8,6.9,0.2c1.7-0.5,3.3-1.3,4.6-2.5c0,0.3,0,0.7,0,1c0.1,0.4,0.2,0.8,0.5,1c0,0.1,0,0.2,0,0.2
					c0.4,0.2,0.8,0.3,1.2,0.3c0.4,0,0.8-0.2,1.2-0.5c0,0,0.1,0,0.1,0c0.2-0.3,0.3-0.7,0.3-1.1v0c-0.5-4.9-0.7-11.6-0.5-20.1v-0.1
					C219.7,489,219.8,482.2,219.5,478.3 M216.3,498.9c-0.2,6.6-0.2,11.7,0,15.2c-0.9,1.5-2.3,2.6-4,3.3h-0.2
					c-1.8,0.7-3.6,0.9-5.4,0.5c-1.9-0.5-3.3-1.5-4.3-3c-0.8-1.3-1.4-3.1-1.8-5.3c-0.4-2.5-0.4-5-0.2-7.5c0.3-2.6,0.9-4.9,1.8-7h0.1
					c0.7-2,1.7-3.4,3-4.2c0.5-0.3,1-0.6,1.6-0.7c0.5-0.1,1-0.2,1.4-0.3c0.4,0,1,0,2,0c1.5,0,2.7,0.1,3.8,0.4
					c0.9,0.2,1.6,0.6,2.3,1.3C216.4,492.5,216.4,494.9,216.3,498.9 M235.3,486v-0.1c-3.1,0.6-5.7,2.5-7.7,5.6c-2,3-2.9,6.9-2.7,11.6
					c0.3,6.2,1.4,10.6,3.5,13.2c1.9,2.3,4.3,3.6,7.3,4.1c4.1,0.8,7.1-0.9,9.1-4.9c1.4-2.9,2-6.2,2-10c0-0.5-0.1-0.9-0.4-1.3
					c-0.3-0.3-0.7-0.4-1.2-0.4c-0.6,0-1,0.2-1.2,0.6c-0.3,0.3-0.4,0.6-0.4,1c0,3.3-0.6,6.1-1.8,8.5c-1.3,2.5-3.2,3.6-5.7,3.2
					c-2.1-0.4-3.8-1.4-5.2-3c-1.7-2.1-2.6-5.9-2.8-11.3c-0.1-1.4,0-2.7,0.3-3.9c1,0,2.6,0,4.7,0.1c2.3,0.2,4.5,0.3,6.4,0.3
					s3.8-0.1,5.5-0.4c0.3,0,0.6-0.1,0.7-0.2c0.3-0.1,0.5-0.3,0.8-0.5c0.3-0.3,0.4-0.7,0.4-1.2c0-4.1-1.1-7.2-3.4-9.3
					C241.1,485.9,238.4,485.2,235.3,486 M235.9,489.1L235.9,489.1c2-0.4,3.7,0,5.3,1.3c1.4,1.1,2.3,3,2.5,5.6
					c-2,0.1-3.6,0.2-4.6,0.2c-1.2,0-3,0-5.4-0.2c-1.9,0-3.4-0.1-4.5-0.1c0.6-1.8,1.4-3.3,2.5-4.3C233,490.2,234.4,489.4,235.9,489.1
					 M36.1,477.3c0,0-0.1-0.1-0.1-0.2c-0.3-0.3-0.6-0.4-1-0.4h0c-1.7,0-4.1-0.1-7.3-0.3h-0.2c-3.2-0.1-5.4-0.2-6.8-0.3h-0.1
					c-0.4,0-0.7,0.1-1.1,0.4c0,0,0,0,0,0.1c-0.3,0.3-0.5,0.7-0.5,1c-0.1,0.3-0.1,0.6,0,1l-0.1-0.2c0,0.6,0,1.5,0,2.8
					c-0.1,1.7-0.1,2.8,0,3.4v0.7c-0.1,0.2-0.1,0.4-0.1,0.5c0,0.3,0,0.5,0.1,0.8c0.2,4.2,0.4,10.2,0.6,18c0.2,7.9,0.3,13.1,0.4,15.6
					c0,0.6,0.2,1.1,0.6,1.3c0.3,0.2,0.6,0.3,0.9,0.3c0.5,0,0.9-0.2,1.1-0.5c0.1-0.1,0.2-0.1,0.3-0.1c0.1-0.3,0.2-0.7,0.2-1.1
					c-0.1-2.7-0.2-7.8-0.3-15.5c-0.2-7.2-0.3-12.8-0.4-16.9l0-0.1c-0.1-0.3-0.1-0.6,0-1.1c0-0.5-0.1-1.3-0.1-2.3H22v-0.1
					c0-0.5,0-1.4,0.1-2.8c0.1-0.8,0.1-1.5,0.1-2c1.3,0,3.1,0,5.5,0.1c3,0.1,5.3,0.1,6.9,0.2c0.6,0.1,1,0,1.4-0.4
					c0.3-0.3,0.5-0.7,0.5-1.2C36.5,478.1,36.4,477.7,36.1,477.3 M63.6,486v-0.1c-3.1,0.6-5.6,2.5-7.6,5.6c-2,3-2.9,6.9-2.7,11.6
					c0.2,6.2,1.4,10.6,3.5,13.2c1.9,2.3,4.3,3.6,7.3,4.1c4.1,0.8,7.1-0.9,9.1-4.9c1.4-2.9,2.1-6.2,2.1-10c0-0.5-0.2-0.9-0.5-1.3
					c-0.3-0.3-0.8-0.4-1.3-0.4c-0.6,0-0.9,0.2-1.1,0.6c-0.3,0.3-0.4,0.6-0.4,1c0,3.3-0.6,6.1-1.7,8.5c-1.3,2.5-3.3,3.6-5.8,3.2
					c-2.1-0.4-3.8-1.4-5.2-3c-1.6-2.1-2.6-5.9-2.8-11.3c-0.1-1.4,0-2.7,0.3-3.9c1.1,0,2.6,0,4.8,0.1c2.3,0.2,4.4,0.3,6.4,0.3
					c2,0,3.8-0.1,5.4-0.4c0.3,0,0.6-0.1,0.7-0.2c0.3-0.1,0.5-0.3,0.8-0.5c0.3-0.3,0.5-0.7,0.5-1.2c0-4.1-1.2-7.2-3.5-9.3
					C69.5,485.9,66.7,485.2,63.6,486 M64.2,489.1L64.2,489.1c2-0.4,3.7,0,5.3,1.3c1.4,1.1,2.2,3,2.5,5.6c-2,0.1-3.5,0.2-4.6,0.2
					c-1.2,0-3,0-5.4-0.2c-1.9,0-3.4-0.1-4.5-0.1c0.6-1.8,1.4-3.3,2.5-4.3C61.3,490.2,62.7,489.4,64.2,489.1 M46,484.6
					c-0.4,0.1-0.7,0.3-1,0.5c-0.3,0.3-0.5,0.7-0.5,1.3l0.1,3.1c0.1,1,0.1,2.2,0,3.5l-0.1,3c0,0.7,0,1.9-0.1,3.6
					c-0.1,1.6-0.1,2.7-0.1,3.1v0.1c-0.3,7-0.1,12.6,0.6,16.9c0.1,0.5,0.3,0.9,0.8,1.1c0.3,0.1,0.7,0.2,1.1,0.2c0.1,0,0.1,0,0.2,0
					c0.4-0.1,0.7-0.3,1-0.7H48c0.2-0.3,0.3-0.7,0.1-1.2V519c-0.7-3.9-0.9-9.2-0.6-16v0c0-0.5,0.1-1.5,0.2-3.1c0-1.7,0.1-2.9,0.1-3.7
					v0c0-0.7,0-1.7,0-3V493c0.1-1.3,0.1-2.5,0-3.6c0-1.1,0-2.2-0.1-3.3c0-0.4-0.2-0.8-0.7-1.2c-0.3-0.3-0.6-0.4-1-0.4
					C46.1,484.6,46.1,484.6,46,484.6 M47.4,476.6C47.4,476.5,47.4,476.5,47.4,476.6c-0.3-0.3-0.7-0.5-1.1-0.6c0,0-0.1,0-0.2,0
					c-0.4,0-0.7,0.1-0.9,0.3c-0.1,0-0.2,0-0.2,0.1c-0.4,0.4-0.5,0.7-0.5,1.1v0.1l-0.1,0.7c-0.1,0.4,0,0.8,0.4,1.2c0,0,0,0,0,0
					c0.3,0.3,0.6,0.5,1,0.5c0,0,0.1,0,0.1,0c0.4,0,0.7-0.1,1-0.3c0.5-0.2,0.7-0.7,0.7-1.3l0.1-0.6C47.8,477.4,47.7,477,47.4,476.6
					 M83.9,488.6h-0.1c-1.4,1.7-2,3.9-1.7,6.4c0.2,2.3,1.6,4.3,4.1,6c0.5,0.4,1.2,0.8,1.9,1.1h0c0.6,0.4,1.5,0.8,2.5,1.3
					c1,0.5,1.7,0.8,2,1c2.3,1.3,4,2.5,4.9,3.6c1.1,1.6,1.4,3.6,0.9,6c-0.3,1.4-1.2,2.5-2.6,3.2c-1.5,0.7-3.2,0.8-5.1,0.4
					s-3.6-1.4-4.9-3c-1.3-1.6-1.8-3.6-1.7-5.9v-0.1c0-0.5-0.1-0.8-0.4-1.1c-0.3-0.3-0.6-0.5-0.9-0.5c-0.1,0-0.2,0-0.2,0
					c-0.5,0-0.9,0.1-1.3,0.4c-0.3,0.3-0.5,0.7-0.5,1.1c-0.2,3.4,0.7,6.1,2.6,8.3c1.7,2,3.9,3.4,6.6,4c2.6,0.6,5,0.4,7.3-0.7h0.1
					c2.3-1.1,3.8-2.9,4.3-5.5c0.7-3.4,0.2-6.2-1.6-8.5c-1.1-1.6-3.1-3.1-5.9-4.5h-0.1c-0.4-0.2-1.1-0.5-2-1v0.1
					c-1-0.6-1.8-1-2.4-1.3c-0.5-0.3-1-0.7-1.5-1c-1.6-1.1-2.5-2.4-2.7-3.8c-0.2-1.5,0.1-2.9,1.1-4v0c0.9-1.1,2.1-1.8,3.6-2.1h0
					c1.4-0.3,2.8-0.1,4.1,0.5c1.3,0.7,2.4,1.9,3.1,3.6c0.1,0.5,0.4,0.9,0.8,1c0.3,0.1,0.7,0.1,1.3,0c1-0.4,1.3-1.1,1-2.1
					c-1-2.6-2.5-4.4-4.5-5.4h-0.1c-2.1-1-4.2-1.3-6.4-0.8v0C87.1,485.8,85.3,486.9,83.9,488.6 M412.2,485.4c-0.1,0-0.1-0.1-0.2-0.1
					c-0.3-0.3-0.7-0.5-1.2-0.5c-0.4,0-0.8,0.2-1.1,0.5c-0.3,0.3-0.5,0.7-0.5,1.1c-0.3,7.6-0.4,12.4-0.4,14.4c0,3.3,0.1,6.1,0.3,8.3
					c0.2,2.8,0.6,4.8,1.2,6v0c1.1,2.3,2.7,3.9,4.8,4.8c2.1,0.9,4.2,1.2,6.4,0.8c1.5-0.5,2.8-1.2,3.9-2.3c0,0.6,0.1,1.3,0.2,1.8
					l0,0.1c0.1,0.3,0.3,0.6,0.5,0.9c0.3,0.4,0.8,0.5,1.4,0.4h0.1c0.3-0.1,0.6-0.3,0.9-0.6c0.4-0.3,0.5-0.8,0.4-1.3v0
					c-0.3-2-0.5-4.1-0.5-6.4c0-0.1,0.1-0.1,0.1-0.2c0.1-0.4,0-0.8-0.1-1c0-2.1,0.1-5,0.2-8.8c0.3-7.9,0.3-13.6,0-16.9v0
					c0-0.4-0.2-0.7-0.5-1c-0.3-0.3-0.7-0.5-1-0.5c-0.1,0-0.1,0-0.2,0c-0.4,0.1-0.7,0.3-1,0.5c-0.4,0.3-0.5,0.8-0.4,1.4
					c0.1,3,0,8.5-0.3,16.4c-0.1,4.1-0.2,7.3-0.1,9.7c-0.4,1.4-1.1,2.5-2.1,3.3v0c-1.1,0.8-2.2,1.3-3.4,1.4c-1.1,0.1-2.3-0.2-3.5-0.9
					c-1.1-0.7-2-1.7-2.8-3.1c-0.4-0.9-0.7-2.5-0.9-4.8c-0.2-2.1-0.4-4.8-0.4-8c0-2,0.1-6.8,0.4-14.4v0
					C412.4,486,412.4,485.7,412.2,485.4 M454.5,505c0-7.4-0.7-12.4-2.1-14.9c-1-1.8-2.4-3-4.3-3.8c-1.8-0.7-3.6-1-5.4-0.8
					c-1.3,0.2-2.5,0.6-3.6,1.3c-0.5,0.3-1,0.7-1.4,1.1c-1.4,1.3-2.2,3-2.4,5.1c-0.1,0.6,0,1,0.5,1.4c0.3,0.2,0.6,0.4,0.9,0.5
					c0.6,0.1,1-0.1,1.3-0.5c0.1,0,0.1,0,0.1,0c0.3-0.4,0.4-0.7,0.4-1v-0.1c0.1-0.7,0.3-1.3,0.5-1.8c0.2-0.4,0.5-0.8,0.9-1.1v-0.1
					c0.9-0.9,1.9-1.4,3.1-1.5c1.3-0.2,2.6-0.1,3.8,0.5l-0.1-0.1c1.1,0.5,2,1.3,2.5,2.4h0.1c1,1.7,1.5,4.9,1.7,9.5
					c-2.4-0.6-4.5-0.9-6.3-0.7h-0.2c-2.2,0.1-4,0.7-5.5,1.7c-0.8,0.6-1.6,1.3-2.2,2.2c-1.6,2.2-2.4,4.9-2.3,8.3v0.5
					c0,0.4,0.1,0.7,0.2,0.8c0,0.1,0,0.2,0,0.3c0,0.1,0,0.3,0,0.4c0,0.1,0,0.2,0.1,0.3l0.1,0.2c0,0.3,0.1,0.6,0.3,0.8l0,0.2
					c0.1,0.1,0.2,0.2,0.3,0.3c0,0.2,0.1,0.4,0.3,0.5c0.9,1.3,2,2.2,3.3,2.9c0.6,0.3,1.2,0.5,1.9,0.7c2,0.5,4,0.6,6,0.2
					c1.4-0.3,2.7-0.8,3.9-1.5v1c0,0.5,0.2,0.9,0.6,1.1c0.3,0.3,0.6,0.5,1.1,0.5c0.5,0,0.9-0.2,1.1-0.5c0.3-0.3,0.5-0.6,0.5-1.1
					c0-1,0.1-3.2,0.3-6.5C454.5,510,454.5,507.1,454.5,505 M451.1,504.6v0.5c0.1,2,0.1,5.3-0.1,9.8c-1.6,1.7-3.7,2.7-6.2,2.8
					c-2.4,0.1-4.3-0.5-5.8-2c-0.2-0.2-0.4-0.4-0.5-0.6c0-0.1,0-0.2-0.1-0.2l0,0c0-0.1-0.1-0.2-0.2-0.2c0-0.1,0-0.2-0.1-0.3
					c0-0.1,0-0.2-0.1-0.3c0-0.1,0-0.2,0-0.3c0,0,0-0.1,0-0.2v-0.8c0,0,0-0.1,0-0.1l-0.1-0.3c-0.1-2.2,0.3-4.1,1.2-5.6
					c0.1-0.2,0.3-0.5,0.4-0.6c1.3-1.6,3.1-2.5,5.5-2.8C446.7,503.5,448.7,503.9,451.1,504.6 M482.6,485.5
					C482.6,485.4,482.6,485.4,482.6,485.5c-1-0.3-1.7,0.1-2,1.1v0c-1.1,3.9-2.7,9.3-4.8,16.4c-1.7,5.2-3,9-3.8,11.6
					c-0.1-0.5-0.3-1-0.5-1.4c-0.5-1.3-1-2.4-1.5-3.3h0.1l-2.9-7c-2.8-6.6-4.4-12-5-16.2v0c-0.1-0.4-0.3-0.7-0.6-1
					c-0.3-0.4-0.7-0.5-1.3-0.4c-0.4,0-0.7,0.2-1,0.6c-0.3,0.3-0.4,0.8-0.3,1.3c0.6,4.5,2.4,10.1,5.3,16.9l3.3,8.3v0.1
					c0.5,0.8,1,2,1.5,3.5c0.5,1.5,1,2.8,1.4,4.2l-0.5,2c-0.3,1.2-0.7,2.3-1,3.1c-0.8,2.2-1.8,3.7-2.9,4.5v-0.1
					c-0.5,0.3-1.1,0.4-2,0.3c-0.4-0.1-1.3-0.3-2.8-0.7c-0.6-0.1-1-0.1-1.3,0c-0.4,0.2-0.6,0.5-0.8,1l0-0.1c-0.3,1.1,0,1.8,1,2h0
					c1.7,0.5,2.7,0.8,3.2,0.9c1.6,0.3,3.1,0.1,4.3-0.7h0c1.8-1,3.2-3,4.3-6.1v0c0.2-0.9,0.5-2,1-3.5c0.5-1.8,0.7-2.7,0.8-2.7
					c0-0.1,0-0.1,0.1-0.1c0.8-3.1,2.4-8.3,4.7-15.6c2.4-7.3,4.2-13,5.2-17.1C484,486.4,483.6,485.7,482.6,485.5 M258,476.9
					c-0.1-0.1-0.2-0.2-0.2-0.2c-0.4-0.3-0.8-0.4-1.2-0.4c-0.4,0-0.8,0.2-1.1,0.5c-0.3,0.3-0.5,0.7-0.5,1.1
					c-0.2,5.5-0.1,15.7,0.3,30.7c0,0.3,0,1.1-0.1,2.4c-0.1,1.2-0.1,2.2,0,2.9c0.2,2.7,1,4.7,2.4,6v-0.1c0.9,1,2.2,1.4,4,1.4
					c0.4,0,1,0,1.8,0h0.1c0.6,0,1,0,1.1,0c0.6,0.1,1.1-0.1,1.4-0.4c0,0,0,0,0-0.1c0.2-0.3,0.4-0.6,0.5-0.9c0-0.1,0-0.1,0-0.2
					c0-0.5-0.2-0.9-0.5-1.2c-0.3-0.3-0.6-0.5-1-0.5c-0.4,0-1,0-1.8,0c-0.8,0-1.3,0-1.6,0c-0.8,0-1.5-0.2-1.9-0.5
					c-0.8-0.7-1.3-2-1.4-3.8c0-0.6,0-1.4,0-2.5V511c0.1-1.5,0.1-2.4,0-2.7c-0.3-14.8-0.4-25-0.2-30.4v0
					C258.2,477.5,258.2,477.2,258,476.9 M296.8,476c-0.4,0-0.9,0-1.6,0.1c-0.7,0.1-1.3,0.2-1.6,0.2c-0.4,0-0.7,0.2-1,0.5
					c-0.1,0-0.1,0-0.1,0.1c-0.2,0.3-0.3,0.6-0.4,0.9c-0.2,0.2-0.3,0.6-0.3,1.1v0c0.4,5,0.6,11.7,0.4,20.2c-0.2,10.2-0.3,17-0.2,20.6
					v0c0,0.3,0.1,0.7,0.5,1.1c0.3,0.3,0.7,0.4,1.1,0.4c0.4,0,0.8-0.1,1.1-0.4c0.4-0.4,0.6-0.9,0.5-1.5c-0.1-2-0.1-8.7,0.1-20.3
					c0.1-2.6,0.1-4.8,0.1-6.5c1.6,0.2,3,0.3,4.1,0.3c0.1,0,0.3,0,0.4,0c1.2,0,2.2-0.1,2.9-0.3c1.6-0.5,2.6-1.2,3.1-2.3
					c0.4-0.5,0.8-1.8,1-3.9c0.2-2.2-0.1-3.9-0.9-5.3c-0.8-1.4-1.6-2.4-2.6-3.3c-1-0.9-2-1.5-3-1.7C299.7,476,298.5,475.9,296.8,476
					 M295.1,479.4c0.2,0,0.4,0,0.5,0h0c0.7-0.1,1.2-0.2,1.5-0.3c1.2,0,2,0.1,2.5,0.3c0.6,0.1,1.2,0.5,1.9,1h-0.1
					c0.6,0.5,1.2,1.1,1.6,1.8h-0.1c0.8,1.5,1.1,3,0.9,4.6c-0.3,1.5-0.5,2.3-0.7,2.4c-0.1,0-0.5,0.1-1,0.3l0,0
					c-0.3,0-0.5,0.1-0.8,0.2c-0.3,0.1-0.7,0.1-1.1,0.1h-0.1c-0.1,0-0.3,0-0.4,0s-0.3,0-0.4,0c-0.3,0-0.7,0-1.2-0.1
					c-0.5-0.1-0.8-0.1-1-0.1c-0.3,0-0.6-0.1-1.1-0.1c-0.1-0.1-0.3-0.1-0.4-0.1V485c0-0.8-0.1-1.1-0.1-1.1
					C295.4,482.3,295.3,480.8,295.1,479.4 M332,505c0-7.4-0.7-12.4-2.1-14.9c-1-1.8-2.5-3-4.3-3.8c-1.8-0.7-3.6-1-5.4-0.8
					c-2,0.3-3.6,1.1-5,2.4c-1.4,1.3-2.2,3-2.4,5.1c-0.1,0.6,0.1,1,0.6,1.4c0.3,0.2,0.6,0.4,0.9,0.5c0.5,0.1,1-0.1,1.3-0.5
					c0.1,0,0.1,0,0.1,0c0.2-0.4,0.3-0.7,0.3-1v-0.1c0.2-1.2,0.7-2.2,1.5-2.9v-0.1c0.9-0.9,1.9-1.4,3.2-1.5c1.2-0.2,2.5-0.1,3.7,0.5
					l-0.1-0.1c1.1,0.5,2,1.3,2.5,2.4h0.1c0.9,1.7,1.5,4.9,1.8,9.5c-2.5-0.6-4.6-0.9-6.4-0.7h-0.1c-3.4,0.1-6,1.4-7.8,3.9
					c-1.6,2.2-2.4,4.9-2.2,8.3v0.5c0,0.4,0,0.7,0.1,0.8c0,0.1,0,0.2,0,0.3c0,0.1,0,0.3,0,0.4c0,0.1,0,0.2,0.1,0.3l0,0.2
					c0,0.3,0.1,0.6,0.3,0.8l0,0.2c0,0.1,0.1,0.2,0.2,0.3c0,0.2,0.2,0.4,0.4,0.5c1.3,1.8,3,3,5,3.5c2,0.5,4,0.6,6,0.2
					c1.5-0.3,2.8-0.8,3.9-1.5v1c0,0.5,0.2,0.9,0.6,1.1c0.3,0.3,0.7,0.5,1.1,0.5c0.5,0,0.9-0.2,1.1-0.5c0.3-0.3,0.5-0.6,0.5-1.1
					c0-1,0.1-3.2,0.3-6.5C332,510,332,507.1,332,505 M328.7,504.6v0.5c0.1,2,0,5.3-0.2,9.8c-1.6,1.7-3.7,2.7-6.2,2.8
					c-2.6,0.1-4.7-0.7-6.3-2.6c0-0.1,0-0.2,0-0.2l0,0c-0.1-0.1-0.1-0.2-0.2-0.2c0-0.1,0-0.2-0.1-0.3c0-0.1,0-0.2-0.1-0.3
					c0-0.1,0-0.2-0.1-0.3c0,0,0-0.1,0-0.2v-0.8c0,0,0-0.1,0-0.1l0-0.3c-0.1-2.5,0.4-4.6,1.5-6.2c1.3-1.6,3.1-2.5,5.5-2.8
					C324.2,503.5,326.2,503.9,328.7,504.6 M351.5,489.7c0.5,0.2,0.9,0.1,1.3-0.1c0.3-0.1,0.5-0.5,0.7-1c0.3-1.1-0.1-1.8-1.2-2
					c-3.6-1-6.4-0.6-8.5,1c-0.1-0.5-0.1-1.1-0.3-1.7c0-0.4-0.1-0.7-0.3-1c-0.4-0.5-0.8-0.6-1.5-0.5c-0.4,0.1-0.7,0.2-0.9,0.5
					c-0.3,0.3-0.5,0.7-0.5,1.2v0c0.2,3,0.2,8.6-0.2,16.7c-0.3,7.2-0.2,12.9,0.3,17l0.2,0.1c0,0.3,0.2,0.5,0.5,0.8
					c0.3,0.4,0.7,0.5,1.3,0.4h0c0.3-0.1,0.6-0.3,0.9-0.6c0,0,0.1,0,0.1,0c0.2-0.3,0.3-0.7,0.3-1.1v-0.1c-0.5-3.8-0.7-9.2-0.4-16.3
					c0.2-3.8,0.3-6,0.3-6.6c0-0.2,0.1-0.5,0.1-0.7c0-2.5,0.6-4.4,1.9-5.5h0.1C347.2,489.2,349.1,489,351.5,489.7 M371.5,489.4
					L371.5,489.4c1.1,0.4,2,1.2,2.5,2.3h0c1,1.7,1.6,4.9,1.8,9.5c-2.5-0.6-4.6-0.9-6.4-0.7h-0.1c-3.4,0.1-6,1.4-7.8,3.9
					c-1.6,2.2-2.4,4.9-2.2,8.3v0.5c0,0.4,0,0.7,0.2,0.8c0,0.1,0,0.2,0,0.3c0,0.1,0,0.3,0,0.4c0,0.1,0,0.2,0,0.3l0,0.2
					c0,0.3,0.1,0.6,0.3,0.8l0,0.2c0.1,0.1,0.2,0.2,0.3,0.3c0,0.2,0.1,0.4,0.3,0.5c1.3,1.8,3,3,5,3.5c2,0.5,4,0.6,6,0.2
					c1.5-0.3,2.9-0.8,4-1.5v1c0,0.5,0.2,0.9,0.5,1.1c0.3,0.3,0.6,0.5,1.1,0.5c0.5,0,0.9-0.2,1.1-0.5c0.3-0.3,0.5-0.6,0.5-1.1
					c0-1,0.1-3.2,0.3-6.5c0.1-3.6,0.1-6.4,0.1-8.5c0-7.4-0.7-12.4-2.1-14.9c-1-1.8-2.4-3-4.2-3.8c-1.8-0.7-3.6-1-5.5-0.8
					c-2,0.3-3.6,1.1-5,2.4c-1.4,1.3-2.2,3-2.4,5.1c-0.1,0.6,0.1,1,0.5,1.4c0.3,0.2,0.6,0.4,0.9,0.5c0.6,0.1,1-0.1,1.3-0.5
					c0.1,0,0.1,0,0.1,0c0.3-0.4,0.4-0.7,0.4-1v-0.1c0.1-1.2,0.6-2.2,1.3-2.9v-0.1c0.9-0.9,2-1.4,3.3-1.5
					C369.2,488.6,370.4,488.8,371.5,489.4 M375.9,504.6v0.5c0,2,0,5.3-0.2,9.8c-1.6,1.7-3.6,2.7-6.2,2.8c-2.6,0.1-4.7-0.7-6.2-2.6
					c0-0.1,0-0.2-0.2-0.2l0,0c-0.1-0.1-0.1-0.2-0.1-0.2c0-0.1,0-0.2-0.1-0.3c0-0.1,0-0.2-0.1-0.3c0-0.1,0-0.2-0.1-0.3
					c0,0,0-0.1,0-0.2v-0.8c0,0,0-0.1,0-0.1l-0.1-0.3c-0.1-2.5,0.5-4.6,1.6-6.2c1.3-1.6,3.1-2.5,5.4-2.8
					C371.3,503.5,373.4,503.9,375.9,504.6 M389.9,487.9L389.9,487.9c-1.4,0.7-2.4,1.7-3.2,3c-1.9,3.3-3,7.6-3.3,12.8
					c-0.3,5.4,0.4,9.6,2.1,12.8h0c1.1,2,2.7,3.4,4.7,4.2l-0.2-0.2c2,0.8,4,1,6.1,0.5c1.3-0.4,2.5-1,3.6-1.8c0.1,2,0.2,3.9,0.3,5.8
					v0.2c0,1.8-0.5,3.3-1.5,4.4c-1,1.1-2.3,1.8-3.9,2h-0.1c-1.4,0.3-2.8,0.2-4.1-0.3c-1.2-0.5-2-1.3-2.4-2.3h0
					c-0.1-0.3-0.2-0.7-0.2-1v-0.1c-0.1-0.4-0.2-0.8-0.2-1.1v-1.5c0-0.6,0-1.2,0-1.6c0.1-0.3-0.1-0.7-0.5-1.1
					c-0.3-0.3-0.7-0.5-1.1-0.5c0,0-0.1,0-0.2,0c-0.4,0.1-0.8,0.3-1,0.5c-0.3,0.3-0.5,0.7-0.5,1.2v1.7c0,1.1,0.1,2,0.2,2.8
					c0.1,0.6,0.3,1.3,0.6,2.1c0.6,1.8,2,3.1,4.2,3.9c1.9,0.8,3.9,1,6,0.5c2.2-0.4,4.1-1.4,5.8-3h0c1.6-1.6,2.5-3.7,2.5-6.4
					c0-0.2,0-0.4,0-0.5v-0.1c-0.4-3-0.5-6.3-0.5-9.9c0.1-0.2,0.1-0.4,0-0.7c0-2.2,0-5,0.1-8.5c0.4-9.3,0.4-15.7,0.2-19.4
					c0-0.5-0.2-0.9-0.5-1.2c-0.3-0.3-0.7-0.5-1.2-0.5c-0.4,0-0.7,0.1-1.1,0.5c0,0-0.1,0.1-0.2,0.2c-0.3,0.4-0.4,0.7-0.3,1.1l0.1,1
					c-1.6-0.9-3.5-1.2-5.6-1h-0.1C392.8,486.6,391.3,487.1,389.9,487.9 M389.5,492.6c0.5-0.8,1.2-1.5,2-2c1-0.5,2-0.9,3.2-1.1
					c2.4-0.2,4.2,0.5,5.3,2.1l-0.1,0c0.1,0,0.1,0.1,0.1,0.3c0,2.5-0.1,7.1-0.2,13.8c-0.2,4.8-0.4,7.6-0.4,8.5
					c-0.4,1.1-1.1,1.9-2,2.6h0c-1,0.7-2.1,1.1-3.2,1.1c-1.1,0.2-2.2,0-3.3-0.6c-1.1-0.6-1.9-1.4-2.5-2.5c-1.5-2.6-2.1-6.3-1.8-11
					C387,499,387.9,495.3,389.5,492.6L389.5,492.6z"/>
			</g>
		</g>
	</g>
	<g transform="matrix( 1.1262664794921875, 0, 0, 1.1249847412109375, -106.05,-28.55) ">
		<g>
			<g id="Layer0_0_MEMBER_1_MEMBER_0_FILL">
				<path d="M382.8,435.3h1.9c0.4,0,0.6-0.1,0.8-0.3c0.2-0.1,0.3-0.4,0.3-0.7c0-0.3-0.1-0.5-0.3-0.8c-0.1-0.2-0.3-0.3-0.8-0.3
					c-0.9,0-1.6,0-2,0c-0.1,0.3-0.1,0.6-0.1,1C382.6,434.7,382.7,435,382.8,435.3v0.2C382.8,435.4,382.8,435.3,382.8,435.3z"/>
			</g>
		</g>
	</g>
	<g transform="matrix( 1.1262664794921875, 0, 0, 1.1249847412109375, -104.35,-28.55) ">
		<g>
			<g id="Layer0_0_MEMBER_1_MEMBER_1_FILL">
				<path d="M382.8,435.3h1.9c0.4,0,0.6-0.1,0.8-0.3c0.2-0.1,0.3-0.4,0.3-0.7c0-0.3-0.1-0.5-0.3-0.8c-0.1-0.2-0.3-0.3-0.8-0.3
					c-0.9,0-1.6,0-2,0c-0.1,0.3-0.1,0.6-0.1,1C382.6,434.7,382.7,435,382.8,435.3v0.2C382.8,435.4,382.8,435.3,382.8,435.3z"/>
			</g>
		</g>
	</g>
</g>
</svg>
